<svg xmlns="http://www.w3.org/2000/svg" xmlns:xlink="http://www.w3.org/1999/xlink" width="890" height="275" viewBox="0 0 890 275">
  <defs>
    <linearGradient id="-light-color-a" x1="0%" y1="0%" y2="100%">
      <stop offset="0%" stop-color="#FECA43"/>
      <stop offset="100%" stop-color="#FF6900"/>
    </linearGradient>
    <radialGradient id="-light-color-c" cx="100%" cy="0%" r="70.711%" fx="100%" fy="0%" gradientTransform="matrix(-.30058 .30058 -.05071 -.5106 1.3 -.3)">
      <stop offset="0%" stop-color="#FC4"/>
      <stop offset="100%" stop-color="#FC4" stop-opacity="0"/>
    </radialGradient>
    <path id="-light-color-b" d="M395.628782,93.2210355 L350.025268,93.2210355 L350.025268,1.78301445 L395.107869,1.78301445 L395.107869,7.66206642 L356.406857,7.66206642 L356.406857,42.2484041 L390.279219,42.2484041 L390.279219,48.127456 L356.406857,48.127456 L356.406857,87.3419835 L395.628782,87.3419835 L395.628782,93.2210355 Z M570.229348,93.2210355 L563.462519,93.2210355 L563.462519,48.2525423 L507.356965,48.2525423 L507.356965,93.2210355 L500.655833,93.2210355 L500.655833,1.78301445 L507.356965,1.78301445 L507.356965,42.3734903 L563.462519,42.3734903 L563.462519,1.78301445 L570.229348,1.78301445 L570.229348,93.2210355 Z M455.123866,6.22357498 C443.653632,6.22357498 434.623566,9.89273384 428.033395,17.2311616 C421.443224,24.5695894 418.148188,34.6180813 418.148188,47.3769388 C418.148188,60.4276655 421.255532,70.5595474 427.470314,77.7728883 C433.685095,84.9862293 442.569179,88.5928457 454.122833,88.5928457 C461.797462,88.5928457 470.437941,85.6234338 476.044619,81.6769971 L479.714491,87.0178336 C471.157437,92.7524356 463.556478,94.4718976 452.621282,94.4718976 C439.77462,94.4718976 429.660111,90.3232464 422.277452,82.0258195 C414.894792,73.7283926 411.203518,62.1371862 411.203518,47.2518526 C411.203518,37.953731 412.965737,29.760666 416.490227,22.6724119 C420.014717,15.5841577 425.082398,10.1116907 431.693424,6.25484653 C438.30445,2.39800237 445.989391,0.469609219 454.748479,0.469609219 C463.674406,0.469609219 471.363184,3.10782301 478.034153,6.66950322 L475.221908,11.8841526 C468.548318,8.54850365 462.464816,6.22357498 455.123866,6.22357498 Z M306.730566,93.2210355 L300.286412,93.2210355 L300.286412,7.78715263 L271.953817,7.78715263 L271.953817,1.78301445 L334.00041,1.78301445 L334.00041,7.78715263 L306.730566,7.78715263 L306.730566,93.2210355 Z"/>
  </defs>
  <g fill="none" fill-rule="evenodd">
    <g fill="#FFF">
      <path d="M130,95.4716981 L260,185.235849 L130,275 L0,185.235849 L130,95.4716981 Z M130,103.922403 L12.2386462,185.235849 L130,266.549295 L247.761354,185.235849 L130,103.922403 Z"/>
      <path d="M130,49.8113208 L260,139.575472 L130,229.339623 L0,139.575472 L130,49.8113208 Z M130,66.7580193 L24.5428803,139.575472 L130,212.392924 L235.45712,139.575472 L130,66.7580193 Z"/>
      <path d="M130,0 L260,89.7641509 L130,179.528302 L0,89.7641509 L130,0 Z M130,25.4820174 L36.9040672,89.7641509 L130,154.046284 L223.095933,89.7641509 L130,25.4820174 Z"/>
    </g>
    <g transform="translate(310 90.366)">
      <use fill="url(#-light-color-a)" xlink:href="#-light-color-b"/>
      <use fill="url(#-light-color-c)" xlink:href="#-light-color-b"/>
      <path fill="#FFF" d="M19.9003202,42.3734903 L26.15678,42.3734903 C32.2881414,42.3734903 36.8136021,41.3519631 39.7332979,39.3088781 C42.6529938,37.2657931 44.7729431,34.0552791 44.7729431,29.6772398 C44.7729431,25.3408961 42.6217118,22.255467 39.639451,20.4208601 C36.6571903,18.5862531 32.0378836,17.6689634 25.7813924,17.6689634 L19.9003202,17.6689634 L19.9003202,42.3734903 Z M19.9003202,55.8605581 L19.9003202,93.2210355 L0.505294638,93.2210355 L0.505294638,1.78301445 L27.1578136,1.78301445 C39.587376,1.78301445 49.0255048,4.0449675 54.9900263,8.56894146 C60.9545479,13.0929154 64.0718781,19.9621645 64.0718781,29.1768949 C64.0718781,34.5556289 62.2148585,39.3401287 59.2534527,43.5305377 C56.2920469,47.7209468 50.7669064,50.8884713 43.6410108,52.9738296 C45.1888935,54.2898887 47.8177386,56.962165 50.936063,61.1553331 C54.3256163,65.7132188 61.3988186,76.4017863 72.15567,93.2210355 L50.936063,93.2210355 C37.9728688,73.1618676 30.5802417,62.0114011 28.7581816,59.769636 C25.330198,55.5520285 23.0397162,55.8605581 19.9003202,55.8605581 Z M86.3729413,93.2210355 L86.3729413,1.78301445 L105.767967,1.78301445 L105.767967,93.2210355 L86.3729413,93.2210355 Z M149.493995,46.0414712 L155.029354,46.0414712 C161.362153,46.0414712 166.864527,44.7893394 170.008784,42.2850381 C173.153041,39.7807368 175.020981,36.1351493 175.020981,31.3481663 C175.020981,26.5168594 173.407677,22.9488377 170.772702,20.643994 C168.137726,18.3391503 163.244265,17.1867458 157.620031,17.1867458 L149.493995,17.1867458 L149.493995,46.0414712 Z M193.589772,30.3026708 C193.589772,40.1428354 189.627679,47.6687805 183.475463,52.8807321 C177.323247,58.0926837 168.574718,60.6986204 157.229614,60.6986204 L148.908522,60.6986204 L148.908522,93.2210355 L129.513497,93.2210355 L129.513497,1.78301445 L158.731164,1.78301445 C169.826009,1.78301445 178.261718,4.17005246 184.038544,8.94420009 C189.815371,13.7183477 193.589772,20.8377668 193.589772,30.3026708 Z M264.523371,67.8285345 C264.523371,76.0842657 261.551582,82.5886837 255.607915,87.3419835 C249.664249,92.0952834 241.395377,94.691174 230.801052,94.691174 C221.040926,94.691174 212.316831,91.6308583 203.886103,86.079191 L212.316831,72.8354548 C217.90656,76.0216813 223.300838,79.0781873 231.862438,79.0781873 C236.116852,79.0781873 239.82077,77.6478102 242.093962,76.0216813 C244.367154,74.3955525 245.503733,71.9772432 245.503733,68.766681 C245.503733,66.9737697 245.003221,65.3789365 244.002182,63.9821334 C243.001144,62.5853304 241.53089,61.2406671 239.591378,59.9481031 C237.651866,58.6555391 233.699908,56.5916372 227.735387,53.7563356 C222.146255,51.129512 217.954469,48.6069653 215.159902,46.1886198 C212.365336,43.7702742 210.133888,40.9558626 208.46549,37.7453004 C206.797093,34.5347383 205.962906,30.7821894 205.962906,26.4875413 C205.962906,18.3985925 208.705294,12.040107 214.190151,7.41189399 C219.675008,2.783681 227.255676,0.469609219 236.932383,0.469609219 C241.687316,0.469609219 246.174789,1.31679701 250.69721,2.71762933 C255.219632,4.11846165 259.34815,6.00642312 262.742779,8.50686971 L254.411039,21.6397461 C250.540183,19.6644348 248.972413,18.8684046 245.722709,17.7940496 C242.473005,16.7196946 240.217024,16.3384081 236.932383,16.3384081 C233.647741,16.3384081 229.820883,17.4604778 227.860516,19.1699979 C225.900149,20.879518 224.91998,23.1101999 224.91998,25.8621103 C224.91998,27.5716304 225.316218,29.0622262 226.108707,30.3339424 C226.901196,31.6056585 228.162903,32.8356607 229.893865,34.0239856 C231.624828,35.2123106 236.262288,37.3318362 242.727329,40.4173115 C251.277867,44.5034815 257.069861,48.3788708 260.058606,52.7925428 C263.047352,57.2062149 264.523371,61.8660619 264.523371,67.8285345 Z"/>
    </g>
  </g>
</svg>
